<svg xmlns="http://www.w3.org/2000/svg" viewBox="0 0 512 512" width="512" height="512"><defs>
    <linearGradient id="gold" x1="0.08" y1="0.05" x2="0.92" y2="0.98">
      <stop offset="0" stop-color="#f4eccf"/>
      <stop offset="0.5" stop-color="#d3b969"/>
      <stop offset="1" stop-color="#977b39"/>
    </linearGradient>
    <radialGradient id="surface" cx="0.34" cy="0.20" r="0.95">
      <stop offset="0" stop-color="#1b2c20"/>
      <stop offset="0.55" stop-color="#111d15"/>
      <stop offset="1" stop-color="#0a130d"/>
    </radialGradient>
  </defs><g fill="url(#gold)"><path d="M92 372 L188 372 L300 150 L204 150 Z"/><path d="M214 372 L300 372 L330 300 L244 300 Z"/><rect x="307" y="216" width="46" height="32" rx="2" transform="rotate(-14 330 232)"/><rect x="326" y="166" width="40" height="28" rx="2" transform="rotate(-10 346 180)"/><rect x="340" y="272" width="40" height="28" rx="2" transform="rotate(-18 360 286)"/><rect x="380" y="198" width="32" height="24" rx="2" transform="rotate(-12 396 210)"/><rect x="387" y="257" width="30" height="22" rx="2" transform="rotate(-16 402 268)"/><rect x="377" y="145" width="30" height="22" rx="2" transform="rotate(-8 392 156)"/><rect x="409" y="320.5" width="26" height="19" rx="2" transform="rotate(-22 422 330)"/><rect x="364" y="119" width="24" height="18" rx="2" transform="rotate(-6 376 128)"/><rect x="435" y="230" width="22" height="16" rx="2" transform="rotate(-12 446 238)"/><rect x="434" y="178.5" width="20" height="15" rx="2" transform="rotate(-10 444 186)"/><rect x="442" y="284.5" width="20" height="15" rx="2" transform="rotate(-16 452 292)"/><rect x="421" y="133" width="18" height="14" rx="2" transform="rotate(-6 430 140)"/><rect x="462.5" y="314.5" width="15" height="11" rx="2" transform="rotate(-20 470 320)"/><rect x="479" y="208.5" width="14" height="11" rx="2" transform="rotate(-12 486 214)"/><rect x="477.5" y="257" width="13" height="10" rx="2" transform="rotate(-14 484 262)"/><rect x="476" y="161.5" width="12" height="9" rx="2" transform="rotate(-9 482 166)"/><rect x="452" y="115.5" width="12" height="9" rx="2" transform="rotate(-6 458 120)"/></g></svg>